<svg width="140" height="40" viewBox="0 0 140 40" fill="none" xmlns="http://www.w3.org/2000/svg">
<path d="M2.564 17.4991C1.844 16.4071 1.286 15.1411 0.89 13.7011C0.506 12.2611 0.314 10.7191 0.314 9.07508C0.314 7.43108 0.506 5.88908 0.89 4.44908C1.286 2.99708 1.844 1.73108 2.564 0.651079H5.246C4.49 1.98308 3.938 3.33908 3.59 4.71908C3.242 6.08708 3.068 7.53908 3.068 9.07508C3.068 10.6111 3.242 12.0691 3.59 13.4491C3.938 14.8171 4.49 16.1671 5.246 17.4991H2.564ZM11.5356 14.2231C10.4916 14.2231 9.56159 13.9651 8.74559 13.4491C7.92959 12.9331 7.28759 12.1891 6.81959 11.2171C6.36359 10.2331 6.13559 9.06308 6.13559 7.70708C6.13559 6.35108 6.36359 5.18708 6.81959 4.21508C7.28759 3.23108 7.92959 2.48108 8.74559 1.96508C9.56159 1.44908 10.4916 1.19108 11.5356 1.19108C12.5796 1.19108 13.5096 1.44908 14.3256 1.96508C15.1416 2.48108 15.7776 3.23108 16.2336 4.21508C16.7016 5.18708 16.9356 6.35108 16.9356 7.70708C16.9356 9.06308 16.7016 10.2331 16.2336 11.2171C15.7776 12.1891 15.1416 12.9331 14.3256 13.4491C13.5096 13.9651 12.5796 14.2231 11.5356 14.2231ZM11.5356 11.7571C12.3036 11.7571 12.9036 11.4271 13.3356 10.7671C13.7796 10.1071 14.0016 9.08708 14.0016 7.70708C14.0016 6.32708 13.7796 5.30708 13.3356 4.64708C12.9036 3.98708 12.3036 3.65708 11.5356 3.65708C10.7796 3.65708 10.1796 3.98708 9.73559 4.64708C9.30359 5.30708 9.08759 6.32708 9.08759 7.70708C9.08759 9.08708 9.30359 10.1071 9.73559 10.7671C10.1796 11.4271 10.7796 11.7571 11.5356 11.7571ZM22.6724 6.14108C24.4484 6.14108 25.7564 6.49508 26.5964 7.20308C27.4484 7.91108 27.8744 8.85908 27.8744 10.0471C27.8744 10.8151 27.6824 11.5171 27.2984 12.1531C26.9144 12.7771 26.3264 13.2811 25.5344 13.6651C24.7544 14.0371 23.7884 14.2231 22.6364 14.2231C21.7484 14.2231 20.8724 14.1091 20.0084 13.8811C19.1564 13.6411 18.4304 13.3051 17.8304 12.8731L18.9824 10.6411C19.4624 11.0011 20.0144 11.2831 20.6384 11.4871C21.2624 11.6791 21.9044 11.7751 22.5644 11.7751C23.2964 11.7751 23.8724 11.6311 24.2924 11.3431C24.7124 11.0551 24.9224 10.6531 24.9224 10.1371C24.9224 9.59708 24.7004 9.18908 24.2564 8.91308C23.8244 8.63708 23.0684 8.49908 21.9884 8.49908H18.7664L19.4144 1.40708H27.1004V3.74708H21.8444L21.6464 6.14108H22.6724ZM34.4575 14.2231C33.4135 14.2231 32.4835 13.9651 31.6675 13.4491C30.8515 12.9331 30.2095 12.1891 29.7415 11.2171C29.2855 10.2331 29.0575 9.06308 29.0575 7.70708C29.0575 6.35108 29.2855 5.18708 29.7415 4.21508C30.2095 3.23108 30.8515 2.48108 31.6675 1.96508C32.4835 1.44908 33.4135 1.19108 34.4575 1.19108C35.5015 1.19108 36.4315 1.44908 37.2475 1.96508C38.0635 2.48108 38.6995 3.23108 39.1555 4.21508C39.6235 5.18708 39.8575 6.35108 39.8575 7.70708C39.8575 9.06308 39.6235 10.2331 39.1555 11.2171C38.6995 12.1891 38.0635 12.9331 37.2475 13.4491C36.4315 13.9651 35.5015 14.2231 34.4575 14.2231ZM34.4575 11.7571C35.2255 11.7571 35.8255 11.4271 36.2575 10.7671C36.7015 10.1071 36.9235 9.08708 36.9235 7.70708C36.9235 6.32708 36.7015 5.30708 36.2575 4.64708C35.8255 3.98708 35.2255 3.65708 34.4575 3.65708C33.7015 3.65708 33.1015 3.98708 32.6575 4.64708C32.2255 5.30708 32.0095 6.32708 32.0095 7.70708C32.0095 9.08708 32.2255 10.1071 32.6575 10.7671C33.1015 11.4271 33.7015 11.7571 34.4575 11.7571ZM40.7523 17.4991C41.5083 16.1671 42.0603 14.8171 42.4083 13.4491C42.7683 12.0691 42.9483 10.6111 42.9483 9.07508C42.9483 7.53908 42.7683 6.08708 42.4083 4.71908C42.0603 3.33908 41.5083 1.98308 40.7523 0.651079H43.4343C44.1663 1.71908 44.7243 2.97908 45.1083 4.43108C45.5043 5.87108 45.7023 7.41908 45.7023 9.07508C45.7023 10.7311 45.5103 12.2791 45.1263 13.7191C44.7423 15.1471 44.1783 16.4071 43.4343 17.4991H40.7523ZM59.2634 11.3611H57.2114V14.0071H54.3674V11.3611H47.5814V9.39908L53.5214 1.40708H56.5814L51.0734 8.98508H54.4574V6.62708H57.2114V8.98508H59.2634V11.3611ZM69.2437 1.40708V3.29708L64.5637 14.0071H61.3957L65.9137 3.78308H61.7377V5.83508H59.1457V1.40708H69.2437ZM80.4058 1.40708V3.29708L75.7258 14.0071H72.5578L77.0758 3.78308H72.8998V5.83508H70.3078V1.40708H80.4058ZM81.0415 7.81508H86.1355V10.0651H81.0415V7.81508ZM93.2211 14.2231C92.1771 14.2231 91.2471 13.9651 90.4311 13.4491C89.6151 12.9331 88.9731 12.1891 88.5051 11.2171C88.0491 10.2331 87.8211 9.06308 87.8211 7.70708C87.8211 6.35108 88.0491 5.18708 88.5051 4.21508C88.9731 3.23108 89.6151 2.48108 90.4311 1.96508C91.2471 1.44908 92.1771 1.19108 93.2211 1.19108C94.2651 1.19108 95.1951 1.44908 96.0111 1.96508C96.8271 2.48108 97.4631 3.23108 97.9191 4.21508C98.3871 5.18708 98.6211 6.35108 98.6211 7.70708C98.6211 9.06308 98.3871 10.2331 97.9191 11.2171C97.4631 12.1891 96.8271 12.9331 96.0111 13.4491C95.1951 13.9651 94.2651 14.2231 93.2211 14.2231ZM93.2211 11.7571C93.9891 11.7571 94.5891 11.4271 95.0211 10.7671C95.4651 10.1071 95.6871 9.08708 95.6871 7.70708C95.6871 6.32708 95.4651 5.30708 95.0211 4.64708C94.5891 3.98708 93.9891 3.65708 93.2211 3.65708C92.4651 3.65708 91.8651 3.98708 91.4211 4.64708C90.9891 5.30708 90.7731 6.32708 90.7731 7.70708C90.7731 9.08708 90.9891 10.1071 91.4211 10.7671C91.8651 11.4271 92.4651 11.7571 93.2211 11.7571ZM104.358 6.14108C106.134 6.14108 107.442 6.49508 108.282 7.20308C109.134 7.91108 109.56 8.85908 109.56 10.0471C109.56 10.8151 109.368 11.5171 108.984 12.1531C108.6 12.7771 108.012 13.2811 107.22 13.6651C106.44 14.0371 105.474 14.2231 104.322 14.2231C103.434 14.2231 102.558 14.1091 101.694 13.8811C100.842 13.6411 100.116 13.3051 99.5159 12.8731L100.668 10.6411C101.148 11.0011 101.7 11.2831 102.324 11.4871C102.948 11.6791 103.59 11.7751 104.25 11.7751C104.982 11.7751 105.558 11.6311 105.978 11.3431C106.398 11.0551 106.608 10.6531 106.608 10.1371C106.608 9.59708 106.386 9.18908 105.942 8.91308C105.51 8.63708 104.754 8.49908 103.674 8.49908H100.452L101.1 1.40708H108.786V3.74708H103.53L103.332 6.14108H104.358ZM110.977 7.81508H116.071V10.0651H110.977V7.81508ZM123.157 14.2231C122.113 14.2231 121.183 13.9651 120.367 13.4491C119.551 12.9331 118.909 12.1891 118.441 11.2171C117.985 10.2331 117.757 9.06308 117.757 7.70708C117.757 6.35108 117.985 5.18708 118.441 4.21508C118.909 3.23108 119.551 2.48108 120.367 1.96508C121.183 1.44908 122.113 1.19108 123.157 1.19108C124.201 1.19108 125.131 1.44908 125.947 1.96508C126.763 2.48108 127.399 3.23108 127.855 4.21508C128.323 5.18708 128.557 6.35108 128.557 7.70708C128.557 9.06308 128.323 10.2331 127.855 11.2171C127.399 12.1891 126.763 12.9331 125.947 13.4491C125.131 13.9651 124.201 14.2231 123.157 14.2231ZM123.157 11.7571C123.925 11.7571 124.525 11.4271 124.957 10.7671C125.401 10.1071 125.623 9.08708 125.623 7.70708C125.623 6.32708 125.401 5.30708 124.957 4.64708C124.525 3.98708 123.925 3.65708 123.157 3.65708C122.401 3.65708 121.801 3.98708 121.357 4.64708C120.925 5.30708 120.709 6.32708 120.709 7.70708C120.709 9.08708 120.925 10.1071 121.357 10.7671C121.801 11.4271 122.401 11.7571 123.157 11.7571ZM134.293 6.14108C136.069 6.14108 137.377 6.49508 138.217 7.20308C139.069 7.91108 139.495 8.85908 139.495 10.0471C139.495 10.8151 139.303 11.5171 138.919 12.1531C138.535 12.7771 137.947 13.2811 137.155 13.6651C136.375 14.0371 135.409 14.2231 134.257 14.2231C133.369 14.2231 132.493 14.1091 131.629 13.8811C130.777 13.6411 130.051 13.3051 129.451 12.8731L130.603 10.6411C131.083 11.0011 131.635 11.2831 132.259 11.4871C132.883 11.6791 133.525 11.7751 134.185 11.7751C134.917 11.7751 135.493 11.6311 135.913 11.3431C136.333 11.0551 136.543 10.6531 136.543 10.1371C136.543 9.59708 136.321 9.18908 135.877 8.91308C135.445 8.63708 134.689 8.49908 133.609 8.49908H130.387L131.035 1.40708H138.721V3.74708H133.465L133.267 6.14108H134.293ZM2.564 39.4991C1.844 38.4071 1.286 37.1411 0.89 35.7011C0.506 34.2611 0.314 32.7191 0.314 31.0751C0.314 29.4311 0.506 27.8891 0.89 26.4491C1.286 24.9971 1.844 23.7311 2.564 22.6511H5.246C4.49 23.9831 3.938 25.3391 3.59 26.7191C3.242 28.0871 3.068 29.5391 3.068 31.0751C3.068 32.6111 3.242 34.0691 3.59 35.4491C3.938 36.8171 4.49 38.1671 5.246 39.4991H2.564ZM11.5356 36.2231C10.4916 36.2231 9.56159 35.9651 8.74559 35.4491C7.92959 34.9331 7.28759 34.1891 6.81959 33.2171C6.36359 32.2331 6.13559 31.0631 6.13559 29.7071C6.13559 28.3511 6.36359 27.1871 6.81959 26.2151C7.28759 25.2311 7.92959 24.4811 8.74559 23.9651C9.56159 23.4491 10.4916 23.1911 11.5356 23.1911C12.5796 23.1911 13.5096 23.4491 14.3256 23.9651C15.1416 24.4811 15.7776 25.2311 16.2336 26.2151C16.7016 27.1871 16.9356 28.3511 16.9356 29.7071C16.9356 31.0631 16.7016 32.2331 16.2336 33.2171C15.7776 34.1891 15.1416 34.9331 14.3256 35.4491C13.5096 35.9651 12.5796 36.2231 11.5356 36.2231ZM11.5356 33.7571C12.3036 33.7571 12.9036 33.4271 13.3356 32.7671C13.7796 32.1071 14.0016 31.0871 14.0016 29.7071C14.0016 28.3271 13.7796 27.3071 13.3356 26.6471C12.9036 25.9871 12.3036 25.6571 11.5356 25.6571C10.7796 25.6571 10.1796 25.9871 9.73559 26.6471C9.30359 27.3071 9.08759 28.3271 9.08759 29.7071C9.08759 31.0871 9.30359 32.1071 9.73559 32.7671C10.1796 33.4271 10.7796 33.7571 11.5356 33.7571ZM24.4184 28.1051C25.2224 28.1051 25.9544 28.2671 26.6144 28.5911C27.2744 28.9151 27.7964 29.3771 28.1804 29.9771C28.5644 30.5651 28.7564 31.2491 28.7564 32.0291C28.7564 32.8691 28.5464 33.6071 28.1264 34.2431C27.7064 34.8791 27.1304 35.3711 26.3984 35.7191C25.6784 36.0551 24.8744 36.2231 23.9864 36.2231C22.2224 36.2231 20.8424 35.6831 19.8464 34.6031C18.8504 33.5231 18.3524 31.9811 18.3524 29.9771C18.3524 28.5491 18.6224 27.3251 19.1624 26.3051C19.7024 25.2851 20.4524 24.5111 21.4124 23.9831C22.3844 23.4551 23.5064 23.1911 24.7784 23.1911C25.4504 23.1911 26.0924 23.2691 26.7044 23.4251C27.3284 23.5691 27.8564 23.7791 28.2884 24.0551L27.2084 26.1971C26.5844 25.7771 25.7984 25.5671 24.8504 25.5671C23.7824 25.5671 22.9364 25.8791 22.3124 26.5031C21.6884 27.1271 21.3524 28.0331 21.3044 29.2211C22.0484 28.4771 23.0864 28.1051 24.4184 28.1051ZM23.8244 34.0451C24.4484 34.0451 24.9524 33.8771 25.3364 33.5411C25.7324 33.2051 25.9304 32.7491 25.9304 32.1731C25.9304 31.5971 25.7324 31.1411 25.3364 30.8051C24.9524 30.4571 24.4364 30.2831 23.7884 30.2831C23.1524 30.2831 22.6304 30.4631 22.2224 30.8231C21.8144 31.1711 21.6104 31.6211 21.6104 32.1731C21.6104 32.7251 21.8084 33.1751 22.2044 33.5231C22.6004 33.8711 23.1404 34.0451 23.8244 34.0451ZM39.607 23.4071V25.2971L34.927 36.0071H31.759L36.277 25.7831H32.101V27.8351H29.509V23.4071H39.607ZM40.3831 39.4991C41.1391 38.1671 41.6911 36.8171 42.0391 35.4491C42.3991 34.0691 42.5791 32.6111 42.5791 31.0751C42.5791 29.5391 42.3991 28.0871 42.0391 26.7191C41.6911 25.3391 41.1391 23.9831 40.3831 22.6511H43.0651C43.7971 23.7191 44.3551 24.9791 44.7391 26.4311C45.1351 27.8711 45.3331 29.4191 45.3331 31.0751C45.3331 32.7311 45.1411 34.2791 44.7571 35.7191C44.3731 37.1471 43.8091 38.4071 43.0651 39.4991H40.3831ZM53.4223 28.1051C54.2263 28.1051 54.9583 28.2671 55.6183 28.5911C56.2783 28.9151 56.8003 29.3771 57.1843 29.9771C57.5683 30.5651 57.7603 31.2491 57.7603 32.0291C57.7603 32.8691 57.5503 33.6071 57.1303 34.2431C56.7103 34.8791 56.1343 35.3711 55.4023 35.7191C54.6823 36.0551 53.8783 36.2231 52.9903 36.2231C51.2263 36.2231 49.8463 35.6831 48.8503 34.6031C47.8543 33.5231 47.3563 31.9811 47.3563 29.9771C47.3563 28.5491 47.6263 27.3251 48.1663 26.3051C48.7063 25.2851 49.4563 24.5111 50.4163 23.9831C51.3883 23.4551 52.5103 23.1911 53.7823 23.1911C54.4543 23.1911 55.0963 23.2691 55.7083 23.4251C56.3323 23.5691 56.8603 23.7791 57.2923 24.0551L56.2123 26.1971C55.5883 25.7771 54.8023 25.5671 53.8543 25.5671C52.7863 25.5671 51.9403 25.8791 51.3163 26.5031C50.6923 27.1271 50.3563 28.0331 50.3083 29.2211C51.0523 28.4771 52.0903 28.1051 53.4223 28.1051ZM52.8283 34.0451C53.4523 34.0451 53.9563 33.8771 54.3403 33.5411C54.7363 33.2051 54.9343 32.7491 54.9343 32.1731C54.9343 31.5971 54.7363 31.1411 54.3403 30.8051C53.9563 30.4571 53.4403 30.2831 52.7923 30.2831C52.1563 30.2831 51.6343 30.4631 51.2263 30.8231C50.8183 31.1711 50.6143 31.6211 50.6143 32.1731C50.6143 32.7251 50.8123 33.1751 51.2083 33.5231C51.6043 33.8711 52.1443 34.0451 52.8283 34.0451ZM68.2312 33.6311V36.0071H58.7092V34.1171L63.5692 29.5271C64.0852 29.0351 64.4332 28.6151 64.6132 28.2671C64.7932 27.9071 64.8832 27.5531 64.8832 27.2051C64.8832 26.7011 64.7092 26.3171 64.3612 26.0531C64.0252 25.7771 63.5272 25.6391 62.8672 25.6391C62.3152 25.6391 61.8172 25.7471 61.3732 25.9631C60.9292 26.1671 60.5572 26.4791 60.2572 26.8991L58.1332 25.5311C58.6252 24.7991 59.3032 24.2291 60.1672 23.8211C61.0312 23.4011 62.0212 23.1911 63.1372 23.1911C64.0732 23.1911 64.8892 23.3471 65.5852 23.6591C66.2932 23.9591 66.8392 24.3911 67.2232 24.9551C67.6192 25.5071 67.8172 26.1611 67.8172 26.9171C67.8172 27.6011 67.6732 28.2431 67.3852 28.8431C67.0972 29.4431 66.5392 30.1271 65.7112 30.8951L62.8132 33.6311H68.2312ZM78.8484 33.6311V36.0071H69.3264V34.1171L74.1864 29.5271C74.7024 29.0351 75.0504 28.6151 75.2304 28.2671C75.4104 27.9071 75.5004 27.5531 75.5004 27.2051C75.5004 26.7011 75.3264 26.3171 74.9784 26.0531C74.6424 25.7771 74.1444 25.6391 73.4844 25.6391C72.9324 25.6391 72.4344 25.7471 71.9904 25.9631C71.5464 26.1671 71.1744 26.4791 70.8744 26.8991L68.7504 25.5311C69.2424 24.7991 69.9204 24.2291 70.7844 23.8211C71.6484 23.4011 72.6384 23.1911 73.7544 23.1911C74.6904 23.1911 75.5064 23.3471 76.2024 23.6591C76.9104 23.9591 77.4564 24.3911 77.8404 24.9551C78.2364 25.5071 78.4344 26.1611 78.4344 26.9171C78.4344 27.6011 78.2904 28.2431 78.0024 28.8431C77.7144 29.4431 77.1564 30.1271 76.3284 30.8951L73.4304 33.6311H78.8484ZM80.2153 29.8151H85.3093V32.0651H80.2153V29.8151ZM91.3979 23.4071V36.0071H88.4819V25.7471H85.9619V23.4071H91.3979ZM98.9868 36.2231C97.9428 36.2231 97.0128 35.9651 96.1968 35.4491C95.3808 34.9331 94.7388 34.1891 94.2708 33.2171C93.8148 32.2331 93.5868 31.0631 93.5868 29.7071C93.5868 28.3511 93.8148 27.1871 94.2708 26.2151C94.7388 25.2311 95.3808 24.4811 96.1968 23.9651C97.0128 23.4491 97.9428 23.1911 98.9868 23.1911C100.031 23.1911 100.961 23.4491 101.777 23.9651C102.593 24.4811 103.229 25.2311 103.685 26.2151C104.153 27.1871 104.387 28.3511 104.387 29.7071C104.387 31.0631 104.153 32.2331 103.685 33.2171C103.229 34.1891 102.593 34.9331 101.777 35.4491C100.961 35.9651 100.031 36.2231 98.9868 36.2231ZM98.9868 33.7571C99.7548 33.7571 100.355 33.4271 100.787 32.7671C101.231 32.1071 101.453 31.0871 101.453 29.7071C101.453 28.3271 101.231 27.3071 100.787 26.6471C100.355 25.9871 99.7548 25.6571 98.9868 25.6571C98.2308 25.6571 97.6308 25.9871 97.1868 26.6471C96.7548 27.3071 96.5388 28.3271 96.5388 29.7071C96.5388 31.0871 96.7548 32.1071 97.1868 32.7671C97.6308 33.4271 98.2308 33.7571 98.9868 33.7571ZM106.108 29.8151H111.202V32.0651H106.108V29.8151ZM121.95 33.6311V36.0071H112.428V34.1171L117.288 29.5271C117.804 29.0351 118.152 28.6151 118.332 28.2671C118.512 27.9071 118.602 27.5531 118.602 27.2051C118.602 26.7011 118.428 26.3171 118.08 26.0531C117.744 25.7771 117.246 25.6391 116.586 25.6391C116.034 25.6391 115.536 25.7471 115.092 25.9631C114.648 26.1671 114.276 26.4791 113.976 26.8991L111.852 25.5311C112.344 24.7991 113.022 24.2291 113.886 23.8211C114.75 23.4011 115.74 23.1911 116.856 23.1911C117.792 23.1911 118.608 23.3471 119.304 23.6591C120.012 23.9591 120.558 24.3911 120.942 24.9551C121.338 25.5071 121.536 26.1611 121.536 26.9171C121.536 27.6011 121.392 28.2431 121.104 28.8431C120.816 29.4431 120.258 30.1271 119.43 30.8951L116.532 33.6311H121.95ZM129.039 28.5371C130.143 28.7171 130.989 29.1311 131.577 29.7791C132.165 30.4151 132.459 31.2071 132.459 32.1551C132.459 32.8871 132.267 33.5651 131.883 34.1891C131.499 34.8011 130.911 35.2931 130.119 35.6651C129.339 36.0371 128.379 36.2231 127.239 36.2231C126.351 36.2231 125.475 36.1091 124.611 35.8811C123.759 35.6411 123.033 35.3051 122.433 34.8731L123.567 32.6411C124.047 33.0011 124.599 33.2831 125.223 33.4871C125.859 33.6791 126.507 33.7751 127.167 33.7751C127.899 33.7751 128.475 33.6371 128.895 33.3611C129.315 33.0731 129.525 32.6711 129.525 32.1551C129.525 31.1231 128.739 30.6071 127.167 30.6071H125.835V28.6811L128.427 25.7471H123.063V23.4071H131.883V25.2971L129.039 28.5371Z" fill="#3E3B3B"/>
</svg>
